solid OpenSCAD_Model
  facet normal 1 -0 0
    outer loop
      vertex 150 0 50
      vertex 150 150 0
      vertex 150 150 50
    endloop
  endfacet
  facet normal 1 0 0
    outer loop
      vertex 150 150 0
      vertex 150 0 50
      vertex 150 0 0
    endloop
  endfacet
  facet normal 0 0 1
    outer loop
      vertex 150 150 50
      vertex 148 148 50
      vertex 150 0 50
    endloop
  endfacet
  facet normal 0 0 1
    outer loop
      vertex 150 150 50
      vertex 2 148 50
      vertex 148 148 50
    endloop
  endfacet
  facet normal 0 0 1
    outer loop
      vertex 2 148 50
      vertex 0 150 50
      vertex 2 2 50
    endloop
  endfacet
  facet normal -0 0 1
    outer loop
      vertex 0 150 50
      vertex 2 148 50
      vertex 150 150 50
    endloop
  endfacet
  facet normal -0 0 1
    outer loop
      vertex 148 2 50
      vertex 150 0 50
      vertex 148 148 50
    endloop
  endfacet
  facet normal -0 0 1
    outer loop
      vertex 2 2 50
      vertex 150 0 50
      vertex 148 2 50
    endloop
  endfacet
  facet normal 0 0 1
    outer loop
      vertex 2 2 50
      vertex 0 0 50
      vertex 150 0 50
    endloop
  endfacet
  facet normal 0 0 1
    outer loop
      vertex 0 0 50
      vertex 2 2 50
      vertex 0 150 50
    endloop
  endfacet
  facet normal 0 0 -1
    outer loop
      vertex 0 0 0
      vertex 150 150 0
      vertex 150 0 0
    endloop
  endfacet
  facet normal -0 0 -1
    outer loop
      vertex 150 150 0
      vertex 0 0 0
      vertex 0 150 0
    endloop
  endfacet
  facet normal -1 0 0
    outer loop
      vertex 0 0 0
      vertex 0 150 50
      vertex 0 150 0
    endloop
  endfacet
  facet normal -1 -0 0
    outer loop
      vertex 0 150 50
      vertex 0 0 0
      vertex 0 0 50
    endloop
  endfacet
  facet normal 0 1 -0
    outer loop
      vertex 150 150 0
      vertex 0 150 50
      vertex 150 150 50
    endloop
  endfacet
  facet normal 0 1 0
    outer loop
      vertex 0 150 50
      vertex 150 150 0
      vertex 0 150 0
    endloop
  endfacet
  facet normal 0 -1 0
    outer loop
      vertex 0 0 0
      vertex 150 0 50
      vertex 0 0 50
    endloop
  endfacet
  facet normal 0 -1 -0
    outer loop
      vertex 150 0 50
      vertex 0 0 0
      vertex 150 0 0
    endloop
  endfacet
  facet normal -1 0 0
    outer loop
      vertex 148 2 2
      vertex 148 148 50
      vertex 148 148 2
    endloop
  endfacet
  facet normal -1 -0 0
    outer loop
      vertex 148 148 50
      vertex 148 2 2
      vertex 148 2 50
    endloop
  endfacet
  facet normal -0 0 1
    outer loop
      vertex 2 148 2
      vertex 148 2 2
      vertex 148 148 2
    endloop
  endfacet
  facet normal 0 0 1
    outer loop
      vertex 148 2 2
      vertex 2 148 2
      vertex 2 2 2
    endloop
  endfacet
  facet normal 1 -0 0
    outer loop
      vertex 2 2 50
      vertex 2 148 2
      vertex 2 148 50
    endloop
  endfacet
  facet normal 1 0 0
    outer loop
      vertex 2 148 2
      vertex 2 2 50
      vertex 2 2 2
    endloop
  endfacet
  facet normal 0 -1 0
    outer loop
      vertex 2 148 2
      vertex 148 148 50
      vertex 2 148 50
    endloop
  endfacet
  facet normal 0 -1 -0
    outer loop
      vertex 148 148 50
      vertex 2 148 2
      vertex 148 148 2
    endloop
  endfacet
  facet normal 0 1 -0
    outer loop
      vertex 148 2 2
      vertex 2 2 50
      vertex 148 2 50
    endloop
  endfacet
  facet normal 0 1 0
    outer loop
      vertex 2 2 50
      vertex 148 2 2
      vertex 2 2 2
    endloop
  endfacet
endsolid OpenSCAD_Model
