solid OpenSCAD_Model
  facet normal 1 -0 0
    outer loop
      vertex 200 0 50
      vertex 200 200 0
      vertex 200 200 50
    endloop
  endfacet
  facet normal 1 0 0
    outer loop
      vertex 200 200 0
      vertex 200 0 50
      vertex 200 0 0
    endloop
  endfacet
  facet normal 0 0 1
    outer loop
      vertex 200 200 50
      vertex 198 198 50
      vertex 200 0 50
    endloop
  endfacet
  facet normal 0 0 1
    outer loop
      vertex 200 200 50
      vertex 2 198 50
      vertex 198 198 50
    endloop
  endfacet
  facet normal 0 0 1
    outer loop
      vertex 2 198 50
      vertex 0 200 50
      vertex 2 2 50
    endloop
  endfacet
  facet normal -0 0 1
    outer loop
      vertex 0 200 50
      vertex 2 198 50
      vertex 200 200 50
    endloop
  endfacet
  facet normal -0 0 1
    outer loop
      vertex 198 2 50
      vertex 200 0 50
      vertex 198 198 50
    endloop
  endfacet
  facet normal -0 0 1
    outer loop
      vertex 2 2 50
      vertex 200 0 50
      vertex 198 2 50
    endloop
  endfacet
  facet normal 0 0 1
    outer loop
      vertex 2 2 50
      vertex 0 0 50
      vertex 200 0 50
    endloop
  endfacet
  facet normal 0 0 1
    outer loop
      vertex 0 0 50
      vertex 2 2 50
      vertex 0 200 50
    endloop
  endfacet
  facet normal 0 0 -1
    outer loop
      vertex 0 0 0
      vertex 200 200 0
      vertex 200 0 0
    endloop
  endfacet
  facet normal -0 0 -1
    outer loop
      vertex 200 200 0
      vertex 0 0 0
      vertex 0 200 0
    endloop
  endfacet
  facet normal -1 0 0
    outer loop
      vertex 0 0 0
      vertex 0 200 50
      vertex 0 200 0
    endloop
  endfacet
  facet normal -1 -0 0
    outer loop
      vertex 0 200 50
      vertex 0 0 0
      vertex 0 0 50
    endloop
  endfacet
  facet normal 0 1 -0
    outer loop
      vertex 200 200 0
      vertex 0 200 50
      vertex 200 200 50
    endloop
  endfacet
  facet normal 0 1 0
    outer loop
      vertex 0 200 50
      vertex 200 200 0
      vertex 0 200 0
    endloop
  endfacet
  facet normal 0 -1 0
    outer loop
      vertex 0 0 0
      vertex 200 0 50
      vertex 0 0 50
    endloop
  endfacet
  facet normal 0 -1 -0
    outer loop
      vertex 200 0 50
      vertex 0 0 0
      vertex 200 0 0
    endloop
  endfacet
  facet normal -1 0 0
    outer loop
      vertex 198 2 2
      vertex 198 198 50
      vertex 198 198 2
    endloop
  endfacet
  facet normal -1 -0 0
    outer loop
      vertex 198 198 50
      vertex 198 2 2
      vertex 198 2 50
    endloop
  endfacet
  facet normal -0 0 1
    outer loop
      vertex 2 198 2
      vertex 198 2 2
      vertex 198 198 2
    endloop
  endfacet
  facet normal 0 0 1
    outer loop
      vertex 198 2 2
      vertex 2 198 2
      vertex 2 2 2
    endloop
  endfacet
  facet normal 1 -0 0
    outer loop
      vertex 2 2 50
      vertex 2 198 2
      vertex 2 198 50
    endloop
  endfacet
  facet normal 1 0 0
    outer loop
      vertex 2 198 2
      vertex 2 2 50
      vertex 2 2 2
    endloop
  endfacet
  facet normal 0 -1 0
    outer loop
      vertex 2 198 2
      vertex 198 198 50
      vertex 2 198 50
    endloop
  endfacet
  facet normal 0 -1 -0
    outer loop
      vertex 198 198 50
      vertex 2 198 2
      vertex 198 198 2
    endloop
  endfacet
  facet normal 0 1 -0
    outer loop
      vertex 198 2 2
      vertex 2 2 50
      vertex 198 2 50
    endloop
  endfacet
  facet normal 0 1 0
    outer loop
      vertex 2 2 50
      vertex 198 2 2
      vertex 2 2 2
    endloop
  endfacet
endsolid OpenSCAD_Model
